<svg xmlns="http://www.w3.org/2000/svg" viewBox="0 0 347.31 474.7"  xmlns:v="https://vecta.io/nano"><style><![CDATA[.J{stroke-width:10}.K{stroke-linejoin:round}.L{stroke-miterlimit:10}]]></style><g fill="#3cc" stroke="#000" className="J K L"><path d="M335.35 441.38c-2.67 1.78-16.47-23.44-19.44-28.95a4.71 4.71 0 0 1-.56-2.24v-22.1c0-2.6 2.1-4.7 4.7-4.7h3.2c1.88 0 3.58 1.12 4.32 2.84l11.58 26.73a4.6 4.6 0 0 1 .29.91c.7 3.3 4.64 22.78 1.9 25.53-3 3-6 2-6 2zM43.32 372.92c-6.6-.32-11.76 5.7-10.33 12.15 2.44 11.02 10.9 25.5 38.35 27.32 0 0 50 5 181 0 0 0 37.93-1.54 55.1-5.2 4.63-1 7.9-5.1 7.9-9.83v-1.56c0-5.36-4.2-9.78-9.57-10.05L43.32 372.92z"/><path d="M161.8 469.64l20.63-3.44c2.67-.44 4.4-3.03 3.83-5.67l-9.4-42.23a4.71 4.71 0 0 0-4.6-3.69H151.5c-3 0-5.22 2.75-4.6 5.68l9.54 45.67c.5 2.47 2.9 4.1 5.38 3.68z"/><path d="M123.35 332.38l-2.4 44.33" stroke-linecap="round"/></g><path d="M136.53 94.42c.47-8.14-6.5-14.7-14.6-13.83-20.4 2.18-56.6 12.87-80.6 58.8 0 0-48.52 91.55-33.44 171.3a13.17 13.17 0 0 0 12.93 10.71h90.1c6.97 0 12.72-5.43 13.13-12.4l12.45-214.57z" fill="#3f0618" stroke="#000" className="J K L"/><path d="M139.78 9.48l-16.18 314a4.72 4.72 0 0 0 4.65 4.96l157.33 1.87a4.71 4.71 0 0 0 4.68-5.63c-6.75-33.9-45.74-211.26-142.28-318.13-2.8-3.1-8-1.26-8.2 2.93z" fill="#660922" stroke="#000" className="J K L"/></svg>