<svg xmlns="http://www.w3.org/2000/svg" viewBox="0 0 456.66 215.5"  stroke="#000" xmlns:v="https://vecta.io/nano"><g stroke-linejoin="round" stroke-miterlimit="10"><path d="M453.26 196.15l-3.58.6c-.74.12-1.13.94-.77 1.6l3.36 6.05c.4.72-.12 1.6-.95 1.6h-6.75a1.08 1.08 0 0 1-.71-.27l-7.4-6.46a1.1 1.1 0 0 0-.71-.27H323.98a1.08 1.08 0 0 0-1.04.79l-3.55 12.43c-.13.46-.56.8-1.04.8h-8.7c-.3 0-.6-.14-.82-.37l-12.48-14.4c-.13-.15-.3-.26-.48-.32l-1.37-.46c-1.08-.36-.94-1.94.2-2.1l9.17-1.3c.2-.03.36-.1.5-.22l8.48-6.6a1.06 1.06 0 0 1 .66-.23h10.35c.67 0 1.18.6 1.07 1.26l-.58 3.48c-.1.66.4 1.26 1.07 1.26H361c.63 0 1.13-.53 1.08-1.16L351.24 41.12c-.04-.6.43-1.14 1.04-1.16l27.78-.93c.6-.02 1.1.46 1.12 1.06l2.96 151.84a1.08 1.08 0 0 0 1.08 1.06h51.73c.14 0 .27-.03.4-.08l4.24-1.7a1.07 1.07 0 0 1 1.05.14l3.22 2.42c.2.14.42.22.65.22h6.56c.6 0 1.08.48 1.08 1.08h0a1.07 1.07 0 0 1-.89 1.08z" stroke-width="5"/><path d="M401.16 39s1-16-19-18-45-3-48-2-231-4-231-4-56-2-93-10l-5 1s-1 2 2 5 33 12 117 23 276 5 276 5h1z" fill="#660922" stroke-width="10"/><path d="M368.1 19.8S357.66 1.5 350.66 3.5c0 0-10 0-19 13l36.43 3.3z" stroke-width="5" fill="none"/></g><path d="M274.16 16s-6-13-12-13-12-3-21 13h33z" fill="none" stroke-width="5" stroke-miterlimit="10"/></svg>