<svg xmlns="http://www.w3.org/2000/svg" viewBox="0 0 338 491"  xmlns:v="https://vecta.io/nano"><g fill="#3cc" stroke="#000" stroke-width="10" stroke-linejoin="round" stroke-miterlimit="10"><path d="M305 437c-108 12-270 3-277 0S5 416 5 416l300 5v16z"/><path d="M303 421h15s14 34 15 52c0 0-13 0-17-4s-13-46-13-46v-2zm-156.65 22.06S157 486 160 486h23l-11.94-42.94h-24.7z"/></g><path d="M89 416l1.35-42.43C93.67 287.68 104.36 93.84 135 5h7s131 220 145 373l-194-3-4 41z" fill="#660922" stroke="#000" stroke-width="10" stroke-linejoin="round" stroke-miterlimit="10"/></svg>