<svg xmlns="http://www.w3.org/2000/svg" viewBox="0 0 297.09 412.07"  xmlns:v="https://vecta.io/nano"><style><![CDATA[.G{stroke:#000}.H{stroke-linejoin:round}.I{stroke-miterlimit:10}]]></style><path d="M250.78 347.07s16.27 34.27 24 32.43c4.15-1 7.44-1.9 10.05-2.7 5.75-1.8 8.75-8.1 6.54-13.7-6.67-16.95-21.26-52.58-26.6-54.03-7-1.9-14 6.03-14 6.03v32zm-113.66 17.2l-.3 37.77a5.09 5.09 0 0 1-5.09 5.05h-22.86a5.11 5.11 0 0 1-5.1-5.1V364.2a5.11 5.11 0 0 1 5.1-5.1h23.16c2.82 0 5.1 2.3 5.1 5.13z" fill="#3cc" stroke-width="10" className="G H I"/><path d="M207.78 90.07l-48 18m21 96l47.1-15.03" fill="none" stroke-width="5" stroke-linecap="round" className="G H I"/><g stroke-width="10" className="G H I"><path d="M250.78 324.4v17.94c0 4.46-3.3 8.23-7.7 8.84-126.7 17.5-204.63 1.33-222.4-3.07a8.88 8.88 0 0 1-5.72-4.48l-8.9-16.8c-3.22-6.08 1.36-13.36 8.23-13.08 39.14 1.56 144.7 5.1 227.2 1.75 5.06-.2 9.3 3.84 9.3 8.9z" fill="#3cc"/><path d="M32.98 313.43l-.13-22.18a11.76 11.76 0 0 1 12.1-11.83l186.85 5.24c7.62.2 13.44-6.77 11.84-14.23l-38.4-179.26a12.07 12.07 0 0 0-1.61-3.91L154.08 10.4c-3.86-6-12.12-7.2-17.54-2.57L40.78 89.65c-2.55 2.18-4.05 5.34-4.12 8.7l-3.9 180.73.2 34.36z" fill="#660922"/></g></svg>