<svg xmlns="http://www.w3.org/2000/svg" xmlns:xlink="http://www.w3.org/1999/xlink" viewBox="0 0 361.8 384.56" xmlns:v="https://vecta.io/nano"><path d="M37.4 120.73L74.57 303.1a11.82 11.82 0 0 0 11.58 9.46h171.47a11.82 11.82 0 0 0 11.63-9.73L302 120.46c1.3-7.25-4.27-13.9-11.63-13.9H48.97c-7.48 0-13.07 6.85-11.58 14.17z" fill="#fff" stroke="#000" stroke-width="6" stroke-linejoin="round" stroke-miterlimit="10"/><circle cx="138.5" cy="193.06" r="4.5"/><path d="M167.45 219.82c.18-.15.15-.14-.1.06a2.75 2.75 0 0 1 .28-.19 6.37 6.37 0 0 1 .63-.35c.1-.06.23-.1.35-.16-.23.1-.22.1.02 0l.6-.2c.6-.18 1.18-.3 1.78-.42.28-.04.32-.05.12-.03l.5-.05.87-.06a16.82 16.82 0 0 1 1.88.02l1 .1c-.32-.04.4.07.48.08a13.82 13.82 0 0 1 1.66.4c.27.08.53.17.8.28-.46-.2.25.14.33.18 1.04.55 2.5.3 3.08-.8.55-1.04.3-2.5-.8-3.08-2.6-1.38-5.74-1.8-8.64-1.64-2.8.16-5.82.8-7.97 2.7-.9.78-.86 2.4 0 3.18.93.87 2.22.84 3.16 0h0z"/><circle cx="204.5" cy="193.06" r="4.5"/><g stroke="#000" stroke-width="6" stroke-miterlimit="10"><path d="M202.6 17.2c-4.2-.4-9.05.74-10.8 7.25-.94 3.5-.24 7.22 1.7 10.26l52.97 82.8c2.26 3.52 6.04 5.8 10.22 6.07 4.3.27 9.18-.78 10.78-6.4 1-3.5.27-7.26-1.7-10.33l-53.5-83.65c-2.15-3.35-5.7-5.63-9.67-6z" fill="#660922"/><path d="M200.88 84.82c1.43-3.97 1.54-8.95-4.33-12.27-3.15-1.78-6.93-2.03-10.37-.9L92.8 102.3c-3.98 1.3-7.13 4.4-8.43 8.38-1.34 4.1-1.53 9.08 3.5 12.04 3.14 1.84 6.97 2.07 10.43.94l94.34-30.96c3.8-1.25 6.9-4.1 8.24-7.87z" fill="#3cc" stroke-linejoin="round"/></g><g opacity=".9"><circle cx="266.5" cy="310.06" r="57" fill="#fff"/><circle cx="266.5" cy="310.06" r="57" fill="none" stroke="#000" stroke-width="5" stroke-dasharray="11.9349,11.9349"/></g><path d="M256.96 284.74c1.87-3.22 5.13-4.83 9.8-4.83 4.63 0 7.88 1.6 9.75 4.83s2.8 7.7 2.8 13.42c0 5.83-.93 10.37-2.8 13.6s-5.12 4.85-9.75 4.85c-4.67 0-7.93-1.62-9.8-4.85s-2.8-7.77-2.8-13.6c0-5.73.94-10.2 2.8-13.42zm17.28 6.05c-.38-2.02-1.17-3.64-2.35-4.88-1.18-1.23-2.9-1.85-5.13-1.85-2.27 0-4 .62-5.17 1.85s-1.97 2.86-2.35 4.88-.58 4.48-.58 7.38c0 3 .2 5.52.58 7.55.38 2.03 1.17 3.67 2.35 4.9s2.9 1.85 5.17 1.85c2.23 0 3.94-.62 5.13-1.85 1.18-1.23 1.97-2.87 2.35-4.9s.58-4.55.58-7.55c-.01-2.9-.2-5.36-.58-7.38z" fill="#660922"/><path d="M230.13 326.06c.5-.3 1.08-.44 1.74-.44.68 0 1.3.16 1.86.5.55.33 1 .8 1.3 1.38s.48 1.28.48 2.06-.16 1.47-.48 2.07-.75 1.08-1.3 1.4c-.56.34-1.17.5-1.86.5-.65 0-1.23-.15-1.73-.44s-.88-.66-1.14-1.1v5.05h-1.27v-11.3H229v1.4a3.02 3.02 0 0 1 1.13-1.08zm3.73 1.98c-.23-.43-.55-.76-.95-.98s-.83-.34-1.3-.34a2.59 2.59 0 0 0-1.29.34 2.52 2.52 0 0 0-.95.99c-.24.43-.36.94-.36 1.5 0 .58.12 1.08.36 1.52s.56.77.95 1 .83.34 1.3.34a2.56 2.56 0 0 0 1.31-.34c.4-.23.7-.56.95-1s.35-.95.35-1.53-.12-1.08-.35-1.5zm4.72 5a3.52 3.52 0 0 1-1.37-1.39c-.33-.6-.5-1.3-.5-2.1 0-.78.17-1.48.5-2.08a3.57 3.57 0 0 1 1.39-1.39 4.1 4.1 0 0 1 1.97-.48c.73 0 1.4.16 1.97.48a3.48 3.48 0 0 1 1.39 1.38c.34.6.5 1.3.5 2.1s-.18 1.5-.53 2.1a3.58 3.58 0 0 1-1.42 1.39c-.6.33-1.26.5-2 .5a3.9 3.9 0 0 1-1.93-.49zm3.24-.95c.4-.2.73-.54.97-.97.25-.43.37-.95.37-1.57s-.12-1.14-.36-1.57-.56-.75-.95-.96a2.66 2.66 0 0 0-1.27-.32 2.64 2.64 0 0 0-1.28.32 2.27 2.27 0 0 0-.93.96c-.23.43-.35.95-.35 1.57 0 .63.1 1.15.34 1.58s.53.75.92.96.8.3 1.26.3.88-.1 1.28-.3zm8.6 1.32l-3-3.4v3.4h-1.27v-10.36h1.27v6.1l2.95-3.4h1.78l-3.6 3.82 3.63 3.85h-1.74zm5.17-7.45c.42-.24.92-.36 1.52-.36v1.32h-.34c-1.43 0-2.14.78-2.14 2.32v4.17h-1.27v-7.67h1.27V327c.23-.45.55-.8.96-1.03zm4.37 7.08a3.52 3.52 0 0 1-1.37-1.39c-.33-.6-.5-1.3-.5-2.1 0-.78.17-1.48.5-2.08a3.57 3.57 0 0 1 1.39-1.39 4.1 4.1 0 0 1 1.97-.48c.73 0 1.4.16 1.97.48a3.48 3.48 0 0 1 1.39 1.38c.34.6.5 1.3.5 2.1s-.18 1.5-.53 2.1a3.58 3.58 0 0 1-1.42 1.39c-.6.33-1.26.5-2 .5a3.9 3.9 0 0 1-1.93-.49zm3.25-.95c.4-.2.73-.54.97-.97.25-.43.37-.95.37-1.57s-.12-1.14-.36-1.57-.56-.75-.95-.96a2.66 2.66 0 0 0-1.27-.32 2.64 2.64 0 0 0-1.28.32 2.27 2.27 0 0 0-.93.96c-.23.43-.35.95-.35 1.57 0 .63.1 1.15.34 1.58s.53.75.92.96.8.3 1.26.3.87-.1 1.28-.3zm14.54-6.35l-2.4 7.67h-1.32l-1.85-6.1-1.85 6.1h-1.32l-2.4-7.67h1.3l1.76 6.44 1.9-6.44h1.3l1.86 6.45 1.74-6.45h1.28zm1.26 1.75c.32-.6.76-1.05 1.32-1.38s1.2-.5 1.94-.5c.94 0 1.72.23 2.33.7s1 1.1 1.2 1.9h-1.37a1.98 1.98 0 0 0-.76-1.11c-.38-.27-.85-.4-1.4-.4-.73 0-1.32.25-1.76.75s-.67 1.2-.67 2.12.22 1.64.67 2.14 1.04.76 1.76.76c.56 0 1.03-.13 1.4-.4s.63-.63.77-1.12h1.37a3.41 3.41 0 0 1-1.23 1.88c-.62.47-1.4.7-2.3.7-.73 0-1.37-.16-1.94-.5a3.34 3.34 0 0 1-1.32-1.39c-.3-.6-.48-1.3-.48-2.1.01-.8.17-1.48.48-2.07zm9.88 5.55a3.52 3.52 0 0 1-1.37-1.39c-.33-.6-.5-1.3-.5-2.1 0-.78.17-1.48.5-2.08a3.57 3.57 0 0 1 1.39-1.39 4.1 4.1 0 0 1 1.97-.48c.73 0 1.4.16 1.97.48a3.48 3.48 0 0 1 1.39 1.38c.34.6.5 1.3.5 2.1s-.18 1.5-.53 2.1a3.58 3.58 0 0 1-1.42 1.39c-.6.33-1.26.5-2 .5a3.9 3.9 0 0 1-1.93-.49zm3.24-.95c.4-.2.73-.54.97-.97.25-.43.37-.95.37-1.57s-.12-1.14-.36-1.57-.56-.75-.95-.96a2.66 2.66 0 0 0-1.27-.32 2.64 2.64 0 0 0-1.28.32 2.27 2.27 0 0 0-.93.96c-.23.43-.35.95-.35 1.57 0 .63.1 1.15.34 1.58s.53.75.92.96.8.3 1.26.3.88-.1 1.28-.3zm.14-8.62l-2.98 1.6v-.95l2.98-1.75v1.1zm14.42 2.27l-2.4 7.67H303l-1.85-6.1-1.85 6.1h-1.32l-2.4-7.67h1.3l1.76 6.44 1.9-6.44h1.3l1.86 6.45 1.74-6.45h1.28zm19.43-69.15l3.5-7.78c.34-.76.53-1.48.3-2.3-.2-.7-.73-1.45-1.38-1.8-.7-.37-1.54-.55-2.3-.3-.7.23-1.48.68-1.8 1.38l-3.5 7.78c-.34.76-.53 1.48-.3 2.3.2.7.73 1.45 1.38 1.8.7.37 1.54.55 2.3.3.7-.23 1.47-.68 1.8-1.38h0zm8.14 10.2l17.78-10.35c1.36-.8 1.95-2.74 1.08-4.1-.88-1.37-2.65-1.92-4.1-1.08l-17.78 10.35c-1.36.8-1.95 2.74-1.08 4.1.88 1.37 2.65 1.92 4.1 1.08h0zm5.6 13.23h7.76c1.57 0 3.07-1.38 3-3-.07-1.63-1.32-3-3-3h-7.76c-1.57 0-3.07 1.38-3 3 .08 1.62 1.32 3 3 3h0z"/><g fill="#ededed"><ellipse cx="175.5" cy="377.56" rx="111.5" ry="7"/><ellipse cx="266" cy="382.06" rx="40" ry="1.5"/></g><g fill="none" stroke-width="3"><circle cx="83.5" cy="70.06" r="8" opacity=".15" stroke="#3cc"/><circle cx="264.5" cy="20.06" r="8" opacity=".32" stroke="#660922"/></g><g opacity=".2" fill="#3cc"><use xlink:href="#B"/><path d="M310.85 61.5v10.47c0 .8.7 1.5 1.5 1.5s1.5-.7 1.5-1.5V61.5c0-.8-.7-1.5-1.5-1.5s-1.5.7-1.5 1.5h0z"/></g><g opacity=".2" fill="#660922"><path d="M99.4 8.18h9.88c.78 0 1.54-.7 1.5-1.5s-.66-1.5-1.5-1.5H99.4c-.78 0-1.54.7-1.5 1.5s.66 1.5 1.5 1.5h0z"/><path d="M102.85 1.5v10.47c0 .8.7 1.5 1.5 1.5s1.5-.7 1.5-1.5V1.5c0-.8-.7-1.5-1.5-1.5s-1.5.7-1.5 1.5h0z"/></g><circle cx="335.5" cy="204.06" r="8" opacity=".15" fill="none" stroke="#3cc" stroke-width="3"/><g opacity=".2" fill="#660922"><use xlink:href="#B" x="43" y="71"/><path d="M353.85 132.5v10.47c0 .8.7 1.5 1.5 1.5s1.5-.7 1.5-1.5V132.5c0-.8-.7-1.5-1.5-1.5s-1.5.7-1.5 1.5h0z"/></g><circle cx="9.5" cy="180.06" r="8" opacity=".32" fill="none" stroke="#660922" stroke-width="3"/><g opacity=".2" fill="#3cc"><path d="M32.4 249.18h9.88c.78 0 1.54-.7 1.5-1.5s-.66-1.5-1.5-1.5H32.4c-.78 0-1.54.7-1.5 1.5s.66 1.5 1.5 1.5h0z"/><path d="M35.85 242.5v10.47c0 .8.7 1.5 1.5 1.5s1.5-.7 1.5-1.5V242.5c0-.8-.7-1.5-1.5-1.5s-1.5.7-1.5 1.5h0z"/></g><defs ><path id="B" d="M307.4 68.18h9.88c.78 0 1.54-.7 1.5-1.5s-.66-1.5-1.5-1.5h-9.88c-.78 0-1.54.7-1.5 1.5s.66 1.5 1.5 1.5h0z"/></defs></svg>