<svg xmlns="http://www.w3.org/2000/svg" viewBox="0 0 303.24 445.41"  xmlns:v="https://vecta.io/nano"><g stroke="#000" stroke-width="10" stroke-linejoin="round" stroke-miterlimit="10"><path d="M5 426.72l9.33-273.26c.18-5.22 4.15-9.52 9.33-10.1 14.55-1.68 42.15-4.66 47.98-3.93 0 0 39.5 2.9 47.58 4.9.36.1.72.15 1.1.2 5.7.7 46.2 5.67 64.38 4.96a10.97 10.97 0 0 1 1.81.08c3.05.38 14.1 1.4 30.15-1.12 0 0 29-3 33-2 0 0 17.85 1.23 29.9 3.7 4.75.97 8.2 5.07 8.4 9.92l10.3 266.67a10.55 10.55 0 0 1-10.31 10.95l-129.28 2.77-143.3-2.8C9.46 437.5 4.8 432.6 5 426.72z" fill="#6a071f"/><g fill="none"><path d="M94.42 139.84c-8.35-1.3-24.2 4.66-21.78-3.43 5.82-19.53 25.94-65.83 28-72 2.28-6.83 5.7-23.46 7.23-31.07.5-2.58 1.75-4.95 3.56-6.86l13.74-14.46a13.88 13.88 0 0 1 5.9-3.69l8.48-2.68c4.43-1.4 9.27-.5 12.9 2.4l6.8 5.45c1.57 1.26 2.86 2.84 3.76 4.65l3.16 6.32c2.46 4.92 6.3 13.06 8.53 18.08l3.88 8.72 7.83 18.4 17.8 43.67c.3.7.64 1.4 1.05 2.06l19.4 27c5.46 8.85-11.8 6.2-22.16 7.04l-6.3.52c-.67.05-1.34.06-2 .02l-56.56-3.54c-.42-.03-.84-.07-1.25-.14l-41.93-6.48z"/><path d="M100.7 141.12c-5.4-1-8.77-6.2-7.47-11.54l11.05-45.45 4.8-19.42 5.15-20.6c1.33-5.34 5.8-12.68 9.92-16.32l2-1.77c4.12-3.64 11.55-6.62 16.5-6.62s11.03 3.38 13.5 7.5c2.48 4.13 6.22 11.66 8.32 16.74l4.35 10.52 7.54 18.52 6.57 16.43a407.58 407.58 0 0 0 7.96 18.34l6.5 13.9 8.97 18.87c2.4 4.96-.16 9.1-5.66 9.24l-15.3.35c-5.5.13-14.48-.14-19.96-.6l-28.07-2.33a244.4 244.4 0 0 1-19.8-2.65l-16.87-3.1z"/></g></g><path d="M83.63 337.2h135.55a3.1 3.1 0 0 1 3.09 3.09v16.5a3.1 3.1 0 0 1-3.09 3.09H83.63a3.1 3.1 0 0 1-3.09-3.09V340.3c0-1.7 1.4-3.1 3.1-3.1" fillRule="evenodd" fill="#fff"/><path d="M214.98 342.54c.14 0 .2-.06.2-.2v-.53c0-.14-.06-.2-.2-.2h-7c-.14 0-.2.06-.2.2v13.46c0 .14.06.2.2.2h7c.14 0 .2-.06.2-.2v-.53c0-.14-.06-.2-.2-.2h-6.08c-.06 0-.08-.02-.08-.08v-5.38c0-.06.02-.08.08-.08h4.16c.14 0 .2-.06.2-.2v-.53c0-.14-.06-.2-.2-.2h-4.16c-.06 0-.08-.02-.08-.08v-5.36c0-.06.02-.08.08-.08h6.08zm-24.18 9.3c0 1.13.36 2.06 1.05 2.75.7.7 1.64 1.03 2.8 1.03 2.36 0 3.88-1.48 3.88-3.76v-.18c0-.1-.1-.18-.2-.18l-.65-.04c-.14 0-.2.06-.2.2v.24c0 1.68-1.1 2.8-2.83 2.8-1.68 0-2.8-1.1-2.8-2.8v-6.75c0-1.66 1.13-2.77 2.8-2.77s2.83 1.1 2.83 2.77v.28c0 .14.06.2.2.2l.65-.04c.1 0 .2-.08.2-.22v-.18c0-1.13-.36-2.02-1.07-2.7-.7-.7-1.64-1.03-2.8-1.03s-2.1.34-2.8 1.03c-.7.7-1.05 1.6-1.05 2.73v6.63zm-18.15 3.44c.02.12.1.18.22.18h.65c.14 0 .2-.06.22-.18l2.42-11.48c.02-.08.06-.08.08 0l2.43 11.48c.02.12.1.18.22.18h.67c.12 0 .2-.06.22-.18l3.15-13.46c.06-.14-.02-.22-.16-.22h-.67c-.12 0-.2.06-.22.18l-2.6 11.38c-.02.08-.06.08-.08 0l-2.47-11.38c-.02-.12-.08-.18-.22-.18h-.65c-.12 0-.2.06-.22.18l-2.38 11.38c-.02.08-.08.08-.1 0l-2.65-11.38c-.02-.12-.1-.18-.22-.18h-.7c-.12 0-.18.04-.18.14l.02.08 3.2 13.46zm-12.28-3.52c0 1.74-1.17 2.93-2.9 2.93-1.68 0-2.85-1.2-2.85-2.93v-6.4c0-1.76 1.13-2.97 2.85-2.97 1.74 0 2.9 1.2 2.9 2.97v6.4zm-6.8-.06c0 1.17.36 2.12 1.07 2.85.7.7 1.66 1.07 2.83 1.07 2.36 0 3.96-1.56 3.96-3.92v-6.33c0-2.32-1.6-3.92-3.96-3.92-2.32 0-3.9 1.6-3.9 3.92v6.33zm-15.1-9.1c0-.06.02-.08.08-.08h3c1.48 0 2.45 1.1 2.45 2.8 0 1.64-.97 2.75-2.45 2.75h-3c-.06 0-.08-.02-.08-.08v-5.38zm5.6 12.7c.04.1.12.16.22.16h.67c.12 0 .18-.06.18-.16l-.02-.08-2.65-6.3c-.02-.04-.02-.08.04-.1 1.56-.34 2.53-1.7 2.53-3.54 0-1.1-.32-2-.95-2.7-.6-.7-1.45-1.03-2.45-1.03h-4.02c-.14 0-.2.06-.2.2v13.5c0 .14.06.2.2.2h.65c.14 0 .2-.06.2-.2v-6.26c0-.06.02-.08.08-.08h2.83c.04 0 .06.02.08.06l2.6 6.3zm-23.2-.04c0 .14.06.2.2.2h.65c.14 0 .2-.06.2-.2v-4.9c0-.02.02-.04.04-.1l1.7-2.12c.04-.06.08-.06.1 0l4.02 7.17a.26.26 0 0 0 .24.14h.75c.12 0 .18-.04.18-.12 0-.02-.02-.06-.04-.12l-4.4-7.92c-.02-.04-.02-.08 0-.12l4.04-5.34c.1-.14.04-.24-.12-.24h-.75c-.12 0-.2.04-.26.12l-5.38 7c-.02.06-.1.02-.1-.04v-6.9c0-.14-.06-.2-.2-.2h-.65c-.14 0-.2.06-.2.2v13.46zm-10.42-3.5c0 1.74-1.17 2.93-2.9 2.93-1.68 0-2.85-1.2-2.85-2.93v-6.4c0-1.76 1.13-2.97 2.85-2.97 1.74 0 2.9 1.2 2.9 2.97v6.4zm-6.8-.06c0 1.17.36 2.12 1.07 2.85.7.7 1.66 1.07 2.83 1.07 2.36 0 3.96-1.56 3.96-3.92v-6.33c0-2.32-1.6-3.92-3.96-3.92-2.32 0-3.9 1.6-3.9 3.92v6.33zm-9.35-6.34c0 1.68-1 2.8-2.47 2.8h-3.05c-.06 0-.08-.02-.08-.08v-5.5c0-.06.02-.08.08-.08h3.05c1.48 0 2.47 1.1 2.47 2.85zm1.03-.02c0-2.28-1.37-3.78-3.4-3.78h-4.08c-.14 0-.2.06-.2.2v13.5c0 .14.06.2.2.2h.65c.14 0 .2-.06.2-.2v-6.14c0-.06.02-.08.08-.08h3.15c2.04.01 3.4-1.46 3.4-3.7z" fill="#6a0820"/><path d="M80.54 254.43h42.52v11.34H80.54v-11.34zm53.86 30.05h11.34v30.05h76.54v11.34H134.4v-41.4zm-53.86 30.05h42.52v11.34H80.54v-11.34zM204.3 258.8a22.61 22.61 0 0 0-16.04-6.64c-6.26 0-11.93 2.54-16.04 6.64a22.61 22.61 0 0 0-6.64 16.04c0 6.26 2.54 11.93 6.64 16.04a22.61 22.61 0 0 0 16.04 6.64c6.26 0 11.93-2.54 16.04-6.64a22.61 22.61 0 0 0 0-32.08zm-16.04-17.98c9.4 0 17.9 3.8 24.05 9.96 6.16 6.16 9.96 14.66 9.96 24.05s-3.8 17.9-9.96 24.05c-6.16 6.16-14.66 9.96-24.05 9.96s-17.9-3.8-24.05-9.96c-6.16-6.16-9.96-14.66-9.96-24.05s3.8-17.9 9.96-24.05c6.16-6.16 14.66-9.96 24.05-9.96zm-107.7 43.65h42.52v11.34H80.54v-11.34z" fillRule="evenodd" fill="#fff"/></svg>