<svg xmlns="http://www.w3.org/2000/svg" viewBox="0 0 234.94 383.78"  xmlns:v="https://vecta.io/nano"><g fill="#660922" stroke="#000"><g stroke-width="10" stroke-miterlimit="10"><path d="M17.38 17.4c-.9.9-1.46 2.1-1.57 3.4L9.97 91.8l-4.94 44.43c-.04.38-.04.76-.01 1.14l4.54 45.4c.24 2.38 2 4.33 4.36 4.78l52.5 10.2.48.07 70.95 7.27c.48.05.97.03 1.44-.05l55.35-9.2c.64-.1 1.25-.33 1.82-.65l26.04-15c1.53-.88 2.54-2.46 2.7-4.22l4.7-52.62c.03-.38.03-.76-.02-1.14l-9.84-80.7c-.06-.48-.18-.95-.36-1.4l-6.7-16.4a5.42 5.42 0 0 0-6.98-3l-5.64 2.2a5.43 5.43 0 0 1-7.39-5.05h0a5.42 5.42 0 0 0-3.91-5.21L163.4 5.2a5.45 5.45 0 0 0-2.89-.04l-36.7 9.67L98.7 23.2a5.44 5.44 0 0 1-3.43 0L55.3 9.9c-.2-.07-.43-.13-.65-.17L32.82 5.37c-1.78-.36-3.62.2-4.9 1.48L17.38 17.4z"/><path d="M79.97 35.8v12.53c0 3.64.3 7.28.9 10.87l.88 5.3c.8 4.86 2.16 9.6 4.02 14.17l6.2 15.14 5.1 14.14c2.6 7.2 3.9 14.77 3.9 22.4v25.46m41-120v28.38a33.13 33.13 0 0 1-5.16 17.73l-3.67 5.77c-3.37 5.3-5.16 11.45-5.16 17.73v15.7a33.02 33.02 0 0 0 .81 7.28l2.74 12.14a33.04 33.04 0 0 0 17.45 22.27h0"/></g><path d="M71.97 31.8l19 6m58.5-6.5l-19 2" stroke-miterlimit="10" stroke-width="15"/></g><path d="M7.97 190.8L12 240.28c.5 5.78 5.64 62.58 11.8 73.95.72 1.34 3.07 22.72 6.16 26.57 4 5 20 31 44 34 22.2 2.77 58.1 3.84 63.35 3.98.47.01.94 0 1.4-.05 5.88-.63 44.7-6.24 68.73-46.07.28-.47.62-.9.98-1.33 1.8-2.07 8-11.78 5.6-44.67-.04-.57-.04-1.14.01-1.7l10.93-100.15c.74-8.73-12.43 1.08-20 5.5l-1.63.95c-.3.17-.58.32-.88.46l-17.8 8.3a10.95 10.95 0 0 1-3.56.97l-26.9 2.53-19.73 1.02c-.5.03-.98.02-1.47-.02l-20.1-1.7L80 199.16l-29.64-4.05c-.4-.05-.8-.13-1.18-.23l-23.7-5.97a10.63 10.63 0 0 0-.98-.2h0c-6.57-1-16.52-4.55-16.52 2.1z" fill="#3cc" stroke="#000" stroke-width="10" stroke-miterlimit="10"/></svg>